<?xml version="1.0" encoding="UTF-8"?>
<svg id="paperboy-logo" xmlns="http://www.w3.org/2000/svg" viewBox="0 0 500 500" role="img" aria-label="Paperboy">
  <path fill="#5e0ed7" d="M210.14,395.23c-13.04-2.76-24.98-6.89-36.83-12.32l-37.36-17.13c-12.79-5.87-25.57-10.19-39.59-13.33l-24.28,12.29c-11.67,5.91-28.04,10.36-41.03,7.5-5.03-1.11-9.22-3.16-13.09-6.68-6.44-5.85-7.25-17.25.52-22.7l55.47-38.96c-21.38-18.57-19-44.77-7.08-67.93,21.64-39.18,60.58-72.11,99.95-92.68,29.78-15.56,62.21-24.69,95.69-27.19,2.49-4.82,6-8.53,10.96-10.74,13.85-6.17,32.67-3.18,39.55,11.61,48.02,5.64,96.18,27.56,129.69,62.42,28.48,29.62,44.75,65.08,44.39,106.61-.11,13.04-3.39,30.65-12.02,40.51l-15.44,17.62c-4.08,4.66-4.43,17.78-7.81,24.56-37.13-1.63-72.81-7.2-109.22-15.39-21.92,15.27-43.53,29.37-69.17,37.87-20.51,6.49-41.84,8.59-63.3,4.06ZM241.05,305.72l89.06,26.56c13.47,4.02,26.9,6.4,40.73,9.13,9.52-17.67,16.13-36.3,17.97-56.35,2.74-29.79-3.42-59.48-16.75-86.08-13.01-25.43-34.31-48.27-60.1-60.63-8.83-4.23-18.11-6.67-27.93-6.14-11.29.61-21.74,3.82-31.94,8.62-37.32,17.58-64.86,49.19-82.98,85.69-8.75,18.89-14.68,40.33-7.66,60.7,27.57,3.52,52.6,10.31,79.59,18.51ZM142.71,285.9c-.96-7.4-2.25-14.75-1.67-22.35.9-11.96,3.91-23.1,8.07-34.29,14.24-34.98,36.67-63.11,65.98-86.64-48.84,14.11-92.91,45.17-123.01,85.87-6.91,9.35-12.15,19.35-15.53,30.35-4.22,13.73,1.37,28.21,13.46,35.63,17.56-6.71,33.7-8.62,52.7-8.57ZM469.71,276.02c-2.12-32.48-17.28-61.37-39.62-84.52-12.06-12.49-25.66-22.54-40.69-31.22-12.43-7.18-25.04-13.22-38.82-17.09,55.47,49.33,72.91,135.68,38.12,201.17l50.54,6.26,5.6-18.68c19-11.66,26.26-34.44,24.86-55.93ZM319.53,348.26l-8.26-2.83-56.02-17.42c-40.86-12.71-87.03-27.34-130.03-24.08-10.82,1.36-21.38,3.22-31.14,8.32-11.31,5.91-21.37,13.32-31.61,20.72,28.87-2.01,55.35,5.46,81.39,17.2l43.36,19.56c13.34,6.02,27.31,9.44,41.89,10.44,31.88,2.19,64.85-14.88,90.41-31.9Z"/>
</svg>
